<svg width="286" height="251" viewBox="0 0 286 251" fill="none" xmlns="http://www.w3.org/2000/svg">
<g clip-path="url(#clip0_1_3)">
<path d="M282.335 128.895C282.136 128.677 281.923 128.469 281.705 128.261C281.696 128.256 281.692 128.247 281.682 128.238C280.636 127.267 279.387 126.462 277.948 125.93L261.88 116.439L274.625 105.039C275.68 104.095 276.226 102.717 276.101 101.311C275.976 99.905 275.199 98.6378 274 97.8931L117.14 0.670538C115.645 -0.254466 113.748 -0.222091 112.29 0.753789L22.5052 60.6571C22.4311 60.7033 22.3617 60.7542 22.2923 60.8097C7.98306 71.6091 0.490599 83.0329 0.0231875 94.7574C-0.342411 103.832 3.74859 112.638 11.5372 119.557L155.162 246.916C155.879 247.554 156.745 247.915 157.629 248.017C158.911 248.771 160.29 249.395 161.757 249.871C164.075 250.63 166.514 251 169.041 251C178.047 251 188.145 246.269 197.733 237.361C197.78 237.314 197.826 237.273 197.872 237.227L279.702 154.309C286.902 147.094 288.129 135.222 282.335 128.895V128.895ZM147.026 227.722L17.4886 112.855C13.4254 109.248 8.65409 103.24 8.97804 95.1135C9.32976 86.3491 15.7624 76.988 27.5866 68.0386L114.867 9.80958L264.184 102.356L251.342 113.845C251.342 113.845 251.314 113.868 251.301 113.882L172.192 184.649C156.004 198.21 146.924 213.916 147.022 227.727L147.026 227.722ZM273.334 147.996L191.555 230.858C181.897 239.798 171.804 243.725 164.533 241.352C160.22 239.946 157.314 236.408 156.347 231.394C154.593 222.316 159.364 207.058 178.005 191.467C178.042 191.434 178.079 191.402 178.116 191.369L254.869 122.711L264.3 128.284C263.074 129.043 261.806 129.954 260.505 131.041C260.403 131.124 260.306 131.212 260.214 131.304L169.249 221.964C167.495 223.712 167.495 226.547 169.24 228.3C170.989 230.053 173.826 230.058 175.58 228.31L266.401 137.793C269.039 135.615 272.204 133.816 274.324 134.204L275.847 135.106C277.744 137.446 277.73 143.588 273.329 148.001L273.334 147.996Z" fill="#231F20"/>
<path d="M30.0485 84.6333L71.2732 118.558C71.935 119.099 72.7449 119.376 73.5548 119.376C74.2906 119.376 75.0264 119.15 75.6558 118.697L116.881 88.8791C117.811 88.2084 118.361 87.1308 118.366 85.9838C118.366 84.8368 117.82 83.7592 116.894 83.0839L73.5733 51.5228C72.333 50.6209 70.6531 50.6024 69.399 51.4858L30.2706 78.9445C29.3543 79.5874 28.7897 80.6234 28.7481 81.7427C28.7064 82.8619 29.1877 83.9349 30.0531 84.6472L30.0485 84.6333ZM71.4167 58.8164L108.675 85.9607L73.6936 111.264L38.2444 82.0942L71.4167 58.8164V58.8164Z" fill="#231F20"/>
<path d="M113.72 47.6054C114.289 47.9985 114.992 48.1696 115.821 48.1095C116.649 48.0494 117.524 47.7117 118.431 47.1012L132.379 37.7078L126.331 52.4616C126.178 52.8733 126.03 53.2756 125.891 53.678C125.752 54.0758 125.678 54.4596 125.673 54.825C125.664 55.1904 125.747 55.5142 125.923 55.8055C126.099 56.0969 126.372 56.3698 126.752 56.6288C128.246 57.6648 130.042 57.4798 132.134 56.0738L150.863 43.4613C151.784 42.8416 152.297 42.2588 152.413 41.7085C152.524 41.1581 152.283 40.6771 151.686 40.2608C151.108 39.8584 150.414 39.6966 149.613 39.7706C148.813 39.8446 147.952 40.1914 147.031 40.8112L132.865 50.348L138.877 35.349C139.062 34.9143 139.242 34.498 139.409 34.1003C139.575 33.6979 139.677 33.3464 139.714 33.0504C139.751 32.7498 139.705 32.463 139.58 32.1809C139.45 31.9034 139.201 31.6305 138.83 31.3715C138.354 31.0432 137.752 30.8397 137.035 30.761C136.313 30.6824 135.623 30.7471 134.957 30.9507C134.364 31.1449 133.675 31.5057 132.897 32.0329L114.53 44.4048C113.632 45.0107 113.123 45.5935 113.007 46.1577C112.891 46.722 113.127 47.2076 113.72 47.6146V47.6054Z" fill="#231F20"/>
<path d="M135.267 61.0087C135.197 61.5961 135.619 62.2066 136.526 62.8356L147.859 70.6796C148.516 71.1329 149.183 71.3549 149.868 71.3502C150.553 71.3456 151.177 71.1514 151.737 70.7721C152.325 70.379 152.626 69.9488 152.644 69.4817C152.663 69.0146 152.344 68.5521 151.691 68.0988L141.973 61.3694L148.743 56.8092L157.397 62.7986C158.045 63.2472 158.693 63.4599 159.341 63.4461C159.989 63.4322 160.586 63.2379 161.127 62.8772C161.669 62.5118 161.946 62.1094 161.965 61.6701C161.983 61.2307 161.673 60.7913 161.035 60.3519L152.381 54.3625L158.226 50.4266L167.62 56.9294C168.286 57.3873 168.948 57.6185 169.615 57.6093C170.276 57.6047 170.892 57.4104 171.457 57.0312C172.007 56.6612 172.294 56.2449 172.313 55.7917C172.331 55.3384 172.007 54.8805 171.341 54.4226L160.331 46.8006C159.743 46.3936 159.156 46.1254 158.577 45.9959C157.999 45.8664 157.402 45.8895 156.782 46.0606C156.166 46.2317 155.509 46.5509 154.819 47.018L136.924 59.0708C135.882 59.7692 135.332 60.4167 135.262 61.004L135.267 61.0087Z" fill="#231F20"/>
<path d="M171.341 59.4593L158.249 73.1355C157.86 73.5425 157.443 73.9911 157.004 74.4721C156.56 74.9578 156.236 75.4156 156.027 75.8458C155.819 76.2759 155.773 76.6921 155.889 77.0853C156.004 77.4784 156.328 77.8623 156.865 78.2323C157.527 78.6901 158.249 78.926 159.035 78.9399C159.822 78.9538 160.539 78.852 161.192 78.6346C161.845 78.4173 162.867 78.0241 164.26 77.4553L182.586 69.8933L171.216 82.2745C170.337 83.2504 169.74 83.9534 169.416 84.3835C169.092 84.8137 168.939 85.2947 168.958 85.8266C168.976 86.3584 169.314 86.8533 169.976 87.3112C170.674 87.7968 171.415 88.0373 172.192 88.0419C172.97 88.0419 173.701 87.9217 174.381 87.6812C175.066 87.4407 176.089 87.0244 177.459 86.4371L197.669 77.6911C198.895 77.1593 199.737 76.7338 200.195 76.4239C200.848 75.9845 201.195 75.485 201.232 74.9208C201.274 74.3565 201.01 73.8801 200.445 73.487C199.881 73.0939 199.284 72.9135 198.65 72.932C198.016 72.9551 197.423 73.0661 196.877 73.2696C196.327 73.4731 195.609 73.783 194.721 74.1946L177.482 81.9785L187.83 70.6889C188.681 69.7592 189.269 69.0747 189.598 68.64C189.926 68.2052 190.093 67.7103 190.102 67.1553C190.107 66.6003 189.746 66.0685 189.019 65.5643C188.302 65.0648 187.534 64.8058 186.724 64.7781C185.909 64.7549 185.146 64.8613 184.419 65.0972C183.693 65.3331 182.698 65.717 181.43 66.2535L164.779 73.1817L176.418 61.5174C177.329 60.6248 177.936 59.8894 178.25 59.3067C178.56 58.7239 178.324 58.1597 177.538 57.6139C176.964 57.2162 176.26 57.0312 175.436 57.0589C174.608 57.0867 173.877 57.3133 173.234 57.7434C172.729 58.0857 172.095 58.6545 171.345 59.4547L171.341 59.4593Z" fill="#231F20"/>
<path d="M196.229 83.4724C195.864 84.5732 195.929 85.6832 196.424 86.8071C196.919 87.9309 197.743 89.1843 198.895 90.5672C199.765 91.5986 200.413 92.4496 200.839 93.1248C201.269 93.8001 201.44 94.4707 201.362 95.1321C201.278 95.7935 200.816 96.4132 199.969 96.9821C198.904 97.699 197.604 98.0135 196.067 97.921C194.531 97.8285 193.101 97.3244 191.777 96.4132C190.819 95.7472 190.218 95.0905 189.982 94.443C189.741 93.7955 189.732 93.1757 189.954 92.5837C190.171 91.9917 190.546 91.3257 191.079 90.5857C191.532 89.966 191.768 89.4248 191.791 88.9669C191.81 88.5091 191.588 88.1159 191.116 87.7922C190.537 87.3898 189.834 87.2094 189.015 87.2511C188.195 87.2927 187.469 87.5239 186.844 87.9448C185.766 88.6709 184.97 89.6329 184.456 90.8355C183.942 92.038 183.845 93.2127 184.16 94.3643C184.623 95.9831 185.942 97.5417 188.117 99.0449C189.931 100.298 191.842 101.149 193.855 101.598C195.873 102.042 197.835 102.093 199.751 101.741C201.662 101.39 203.393 100.696 204.93 99.66C206.216 98.7951 207.1 97.9256 207.591 97.0561C208.081 96.1866 208.262 95.3125 208.137 94.4337C208.012 93.555 207.646 92.63 207.045 91.6633C206.443 90.6921 205.689 89.6653 204.786 88.5831C204.083 87.6997 203.597 87.0614 203.315 86.6637C203.037 86.2659 202.819 85.8312 202.667 85.3594C202.514 84.8877 202.5 84.4437 202.63 84.0274C202.759 83.6112 203.079 83.2319 203.588 82.8897C204.411 82.3347 205.466 82.108 206.758 82.2005C208.049 82.2977 209.271 82.7417 210.423 83.5372C211.663 84.3974 212.297 85.2022 212.316 85.9514C212.339 86.7007 212.07 87.5378 211.51 88.4628C211.149 89.1288 210.955 89.6514 210.923 90.0353C210.895 90.4192 211.131 90.7846 211.64 91.1407C212.2 91.5292 212.917 91.6865 213.783 91.6171C214.653 91.5431 215.389 91.3026 216.004 90.891C216.675 90.4377 217.217 89.8734 217.619 89.1889C218.026 88.5044 218.225 87.7228 218.216 86.8394C218.207 85.9561 217.906 85.0449 217.309 84.0968C216.712 83.1533 215.736 82.2144 214.384 81.2802C212.695 80.11 210.932 79.2868 209.09 78.815C207.253 78.3433 205.462 78.2461 203.713 78.519C201.963 78.7965 200.39 79.407 198.988 80.3459C197.516 81.3357 196.6 82.3809 196.234 83.4817L196.229 83.4724Z" fill="#231F20"/>
<path d="M75.3133 45.1032L206.762 138.963C207.396 139.417 208.123 139.634 208.845 139.634C209.965 139.634 211.066 139.111 211.765 138.131C212.917 136.521 212.542 134.283 210.932 133.131L79.483 39.2711C77.8725 38.1194 75.6327 38.4941 74.4803 40.1036C73.328 41.7131 73.7029 43.9516 75.3133 45.1032Z" fill="#231F20"/>
<path d="M183.211 143.297L119.629 98.7674C118.01 97.6296 115.77 98.0227 114.636 99.6461C113.498 101.269 113.891 103.503 115.515 104.637L179.097 149.166C179.722 149.606 180.439 149.814 181.152 149.814C182.281 149.814 183.396 149.282 184.091 148.287C185.224 146.664 184.836 144.43 183.211 143.297V143.297Z" fill="#231F20"/>
<path d="M164.066 160.803L100.831 114.298C99.2346 113.123 96.9901 113.466 95.8193 115.061C94.6438 116.657 94.9862 118.9 96.5828 120.07L159.818 166.575C160.456 167.047 161.201 167.273 161.942 167.273C163.043 167.273 164.131 166.769 164.834 165.812C166.01 164.216 165.667 161.973 164.071 160.798L164.066 160.803Z" fill="#231F20"/>
<path d="M140.112 189.552L25.8742 95.6316C24.3424 94.3736 22.084 94.5956 20.8252 96.1219C19.5665 97.6527 19.7886 99.9098 21.3158 101.168L135.554 195.088C136.22 195.638 137.03 195.902 137.831 195.902C138.867 195.902 139.895 195.458 140.603 194.593C141.862 193.067 141.639 190.805 140.112 189.547V189.552Z" fill="#231F20"/>
</g>
<defs>
<clipPath id="clip0_1_3">
<rect width="286" height="251" fill="white"/>
</clipPath>
</defs>
</svg>
