<svg width="131" height="50" viewBox="0 0 131 50" fill="none" xmlns="http://www.w3.org/2000/svg">
<path fill-rule="evenodd" clip-rule="evenodd" d="M35.5288 18.2905C35.5288 9.11752 28.0225 1.68176 18.7644 1.68176C9.50545 1.68176 2 9.11752 2 18.2905C2 27.4635 9.50545 34.9001 18.7644 34.9001C28.0225 34.9001 35.5288 27.4635 35.5288 18.2905Z" stroke="#231F20" stroke-width="2.5"/>
<path fill-rule="evenodd" clip-rule="evenodd" d="M66.3514 31.5923C66.3514 22.4193 58.8451 14.9835 49.587 14.9835C40.328 14.9835 32.8226 22.4193 32.8226 31.5923C32.8226 40.7652 40.328 48.201 49.587 48.201C58.8451 48.201 66.3514 40.7652 66.3514 31.5923Z" stroke="#231F20" stroke-width="2.5"/>
<path fill-rule="evenodd" clip-rule="evenodd" d="M97.2351 18.2905C97.2351 9.11752 89.7297 1.68176 80.4707 1.68176C71.2126 1.68176 63.7063 9.11752 63.7063 18.2905C63.7063 27.4635 71.2126 34.9001 80.4707 34.9001C89.7297 34.9001 97.2351 27.4635 97.2351 18.2905Z" stroke="#231F20" stroke-width="2.5"/>
<path fill-rule="evenodd" clip-rule="evenodd" d="M128.933 31.7094C128.933 22.5365 121.427 15.1007 112.168 15.1007C102.91 15.1007 95.4039 22.5365 95.4039 31.7094C95.4039 40.8824 102.91 48.3182 112.168 48.3182C121.427 48.3182 128.933 40.8824 128.933 31.7094Z" stroke="#231F20" stroke-width="2.5"/>
<path d="M17.4583 26.6818H20.5417V14.5857H25V11.6818H13V14.5857H17.4583V26.6818Z" fill="#231F20"/>
<path d="M48.0204 35.7778V23.6818H45V38.6818H55V35.7778H48.0204Z" fill="#231F20"/>
<path d="M79 25.6818H82V10.6818H79V25.6818Z" fill="#231F20"/>
<path d="M106 39.6818H109.364V34.8128H113.072C116.482 34.8128 119 32.7167 119 29.7473C119 26.7778 116.482 24.6818 113.072 24.6818H106V39.6818ZM109.364 31.8652V27.6294H112.706C114.377 27.6294 115.521 28.4591 115.521 29.7473C115.521 31.0355 114.377 31.8652 112.706 31.8652H109.364Z" fill="#231F20"/>
</svg>
